# xmcd CD database file
#
# Track frame offsets:
#	150
#	14532
#	27974
#	40858
#	54614
#	67554
#	80656
#	92554
#	106653
#	119909
#	138695
#	152620
#	166446
#	178215
#	190700
#	203760
#
# Disc length: 2880 seconds
#
# Revision: 0
# Processed by: cddbd v1.5.2PL0 Copyright (c) Steve Scherf et al.
# Submitted via: CDex 1.51
#
DISCID=d50b3e10
DTITLE=Django Reinhardt - Jazz in Paris - Place de Brouckère
DYEAR=1942
DGENRE=Jazz
TTITLE0=Vous et moi
TTITLE1=Distraction
TTITLE2=Blues en mineur
TTITLE3=Studio 24
TTITLE4=Place de Brouckère
TTITLE5=Seul ce soir
TTITLE6=Mixture
TTITLE7=Bei dir was es immer so schön
TTITLE8=Divine beguine
TTITLE9=Nuages
TTITLE10=Djangology
TTITLE11=Eclats de cuivres
TTITLE12=Django Rag
TTITLE13=Dynamisme
TTITLE14=Tons d'ébène
TTITLE15=Chez moi à six heures
EXTD=YEAR: 1942
EXTT0=
EXTT1=
EXTT2=
EXTT3=
EXTT4=
EXTT5=
EXTT6=
EXTT7=
EXTT8=
EXTT9=
EXTT10=
EXTT11=
EXTT12=
EXTT13=
EXTT14=
EXTT15=
PLAYORDER=
